<svg width="22" height="21" viewBox="0 0 22 21" fill="none" xmlns="http://www.w3.org/2000/svg">
<g clip-path="url(#clip0_76_20)">
<path fill-rule="evenodd" clip-rule="evenodd" d="M11.1076 0.410156C16.7516 0.410156 21.3267 5.10063 21.3267 10.8877C21.3267 15.5159 18.402 19.4421 14.344 20.8288C13.8259 20.932 13.6419 20.6048 13.6419 20.3258C13.6419 19.9804 13.6542 18.8523 13.6542 17.4502C13.6542 16.4733 13.3272 15.8357 12.9603 15.5107C15.2361 15.2511 17.6274 14.3651 17.6274 10.3408C17.6274 9.19627 17.2309 8.26229 16.5748 7.52857C16.6811 7.26389 17.0316 6.19818 16.4747 4.75525C16.4747 4.75525 15.6183 4.4745 13.6675 5.82955C12.851 5.59758 11.9762 5.48086 11.1076 5.47677C10.239 5.48086 9.36526 5.59758 8.54978 5.82955C6.59692 4.4745 5.73852 4.75525 5.73852 4.75525C5.18362 6.19818 5.53414 7.26389 5.63939 7.52857C4.98639 8.26229 4.58683 9.19627 4.58683 10.3408C4.58683 14.3548 6.97298 15.2545 9.24263 15.5192C8.95037 15.7808 8.68569 16.2423 8.59372 16.9198C8.01123 17.1876 6.53151 17.6509 5.61997 16.0496C5.61997 16.0496 5.07938 15.0429 4.05339 14.9693C4.05339 14.9693 3.05703 14.9561 3.9839 15.606C3.9839 15.606 4.65325 15.9279 5.11822 17.1389C5.11822 17.1389 5.71808 19.0089 8.56102 18.3753C8.56613 19.2511 8.57533 20.0765 8.57533 20.3258C8.57533 20.6028 8.38729 20.9269 7.87736 20.8298C3.81631 19.4451 0.88855 15.5169 0.88855 10.8877C0.88855 5.10063 5.46464 0.410156 11.1076 0.410156Z" fill="#383838"/>
</g>
<defs>
<clipPath id="clip0_76_20">
<rect width="20.4381" height="20.4381" fill="white" transform="translate(0.890137 0.409912)"/>
</clipPath>
</defs>
</svg>
