<svg width="57" height="55" viewBox="0 0 57 55" fill="none" xmlns="http://www.w3.org/2000/svg">
<path d="M7.82372 26.9327C6.5813 25.2097 6.08255 23.5854 7.29826 22.6015C8.32693 21.7679 9.84099 21.6089 11.7113 23.6929C11.7113 23.6929 17.3 29.9577 19.2237 31.6979C19.6601 32.089 20.2034 32.1491 20.6977 31.655C21.1163 31.2339 20.9649 30.8686 20.6086 30.3659C20.6086 30.3659 12.7311 19.0651 11.6979 17.6858C9.97458 15.3784 10.6381 13.8874 11.4352 13.1784C12.544 12.1858 14.4945 11.9882 16.3069 14.3858L25.8455 26.705C26.135 27.0015 26.6026 27.0444 26.9454 26.8124L27.079 26.7222C27.4308 26.4815 27.5333 26.0218 27.3195 25.6608C25.6496 22.855 19.0055 11.6745 18.0303 9.63778C16.9081 7.28739 17.389 6.09286 18.578 5.40106C19.9897 4.58036 21.3167 4.64052 22.902 6.91356C24.6209 9.38856 31.2961 19.8085 32.9928 22.61C33.2154 22.9753 33.6919 23.1128 34.0838 22.928C34.0883 22.9237 34.0972 22.9237 34.1016 22.9194C34.4757 22.7432 34.8141 22.3866 34.6583 21.8796C33.732 18.9319 29.1854 9.7538 28.2324 7.64403C26.9276 4.76083 27.5644 3.78114 28.9137 3.11942C30.3298 2.42763 31.8038 2.97333 32.8058 4.89833C33.4826 6.20458 45.368 27.0745 45.368 27.0745C45.1943 23.9636 46.0093 21.7593 46.704 19.5464C47.9686 15.5202 51.0279 13.4276 53.2456 14.3686C54.399 14.8585 54.6083 15.8339 54.4836 16.5815C54.2342 18.0339 53.1743 22.5327 52.9695 26.0561C52.4886 34.3147 55.0758 43.8323 45.4348 49.8136C38.9822 53.8183 32.0665 53.1136 27.4976 50.0327C21.9579 46.2987 8.83904 28.3421 7.82372 26.9327Z" fill="#FFCA28"/>
<path d="M52.4041 22.245C51.5981 25.5149 51.4912 29.5282 51.5179 31.2383C51.6248 37.9028 51.5892 43.6692 44.6646 48.9372C43.814 49.586 41.1466 51.1672 38.0428 51.9922C37.0453 52.2544 37.4238 52.5637 38.0383 52.495C41.4271 52.1169 43.9966 50.7075 45.426 49.818C55.0626 43.8368 52.6936 34.3837 53.1745 26.1251C53.3793 22.6016 54.4926 17.0587 54.4748 16.5817C54.4525 16.1047 53.2101 18.9751 52.4041 22.245ZM34.5248 22.5887C34.5248 22.5887 33.8346 22.593 33.18 21.7122C31.2161 19.0782 25.0575 9.13092 23.2851 6.69029C21.2634 3.90592 19.3797 4.97154 18.9522 5.19498C18.9522 5.19498 20.5019 5.24654 21.3569 6.47115C23.1025 8.96763 29.7199 20.1567 31.8084 22.5587C33.1577 24.1098 34.5248 22.5887 34.5248 22.5887ZM10.1128 23.4352C10.7184 24.0626 16.0354 30.1512 17.9948 31.8485C19.6781 33.3051 20.9339 31.4489 20.9339 31.4489C20.9339 31.4489 20.3149 31.5305 19.4688 30.9161C17.3669 29.3821 12.3883 23.9122 11.2661 22.7606C9.60065 21.0504 8.05097 22.1204 7.72144 22.3137C7.72589 22.3137 8.67886 21.9571 10.1128 23.4352ZM27.4265 26.3227C27.4265 26.3227 26.8565 26.7223 25.81 25.5407C25.0485 24.677 16.3071 14.386 16.3071 14.386C14.1161 11.8036 12.3928 12.5727 12.0365 12.7704C12.0365 12.7704 13.1364 12.7145 14.4234 14.1454C15.0112 14.7985 24.3405 26.2754 24.7146 26.6665C26.0817 28.1059 27.3464 26.8684 27.4265 26.3227Z" fill="#EDA600"/>
<path d="M45.3333 24.8488C45.3333 24.8488 33.7507 6.11016 33.0115 4.83398C31.3683 2.00234 29.4579 2.87031 29.1328 3.01211C29.1328 3.01211 30.1971 2.71992 31.4484 4.77383C32.1164 5.86523 40.6263 20.6293 43.3427 25.3473C43.5565 26.2281 43.5387 27.3754 42.8529 28.1145C40.3948 30.7742 37.2598 33.4898 38.1816 40.223C38.4131 41.9289 39.0677 43.5445 39.5531 44.3223C40.1677 45.2977 40.8757 44.9281 40.564 44.1977C40.3547 43.7035 40.0207 42.5391 39.9539 42.0406C39.6422 39.7203 38.5912 35.6641 43.3027 30.8C44.0998 29.9879 46.1259 27.5344 45.3333 24.8488Z" fill="#EDA600"/>
<path d="M46.0862 13.3031C45.4672 11.1848 44.5053 9.24258 43.2585 7.55821C42.1363 6.04141 40.7781 4.73516 39.2284 3.68672C39.0324 3.55352 38.7831 3.14102 38.9968 2.74141C39.2106 2.3418 39.6737 2.39336 39.8474 2.46211C41.7845 3.23126 43.3698 4.55899 44.679 6.38086C46.2332 8.54649 47.0035 10.5875 47.3999 12.8691C47.4444 13.1184 47.4355 13.6426 46.8833 13.7801C46.3356 13.9176 46.1485 13.5094 46.0862 13.3031ZM43.0581 15.5762C42.4391 13.4578 41.4772 11.5156 40.2303 9.83125C39.1081 8.31446 37.7499 7.00821 36.2003 5.95977C36.0043 5.82657 35.7549 5.41407 35.9687 5.01446C36.1824 4.61055 36.6456 4.66641 36.8192 4.73516C38.7564 5.5043 40.3417 6.83204 41.6509 8.65391C43.205 10.8195 43.9754 12.8606 44.3717 15.1422C44.4163 15.3914 44.4074 15.9156 43.8552 16.0531C43.3119 16.1906 43.1204 15.7867 43.0581 15.5762ZM3.81268 33.2836C4.57862 35.359 5.66963 37.2324 7.02784 38.8352C8.25245 40.2746 9.69526 41.4949 11.3117 42.4445C11.5166 42.5648 11.7927 42.9602 11.6056 43.3727C11.4186 43.7895 10.9555 43.7637 10.7729 43.7078C8.78682 43.0633 7.11245 41.8387 5.68299 40.1027C3.98635 38.0402 3.07346 36.0551 2.52127 33.8035C2.45893 33.5543 2.43221 33.0344 2.97549 32.8625C3.51877 32.6906 3.73698 33.0816 3.81268 33.2836ZM6.67604 30.8215C7.44198 32.8969 8.53299 34.7703 9.89119 36.3731C11.1158 37.8125 12.5586 39.0328 14.1751 39.9824C14.3799 40.1027 14.656 40.4981 14.469 40.9105C14.282 41.3273 13.8189 41.3016 13.6363 41.2457C11.6502 40.6012 9.97581 39.3766 8.54635 37.6406C6.84971 35.5781 5.93682 33.593 5.38463 31.3414C5.32229 31.0922 5.29557 30.5723 5.83885 30.4004C6.38213 30.2242 6.60034 30.6195 6.67604 30.8215Z" fill="#B0BEC5"/>
</svg>
