<svg width="22" height="22" viewBox="0 0 22 22" fill="none" xmlns="http://www.w3.org/2000/svg">
<path d="M15.1905 0H6.59934C4.92012 0.0012796 3.31005 0.668914 2.12266 1.8563C0.935271 3.04369 0.267637 4.65376 0.266357 6.33298V14.9242C0.267381 16.6035 0.934902 18.2139 2.12232 19.4015C3.30973 20.5891 4.91995 21.2568 6.59934 21.2581H15.1905C16.8698 21.2566 18.4799 20.5887 19.6673 19.4012C20.8546 18.2136 21.5222 16.6035 21.5235 14.9242V6.33298C21.5227 4.65361 20.8553 3.04324 19.6678 1.85574C18.4803 0.668238 16.8699 0.000768183 15.1905 0ZM19.3861 14.9242C19.3858 16.0368 18.9437 17.1038 18.157 17.8906C17.3702 18.6774 16.3032 19.1195 15.1905 19.1197H6.59934C6.04842 19.1197 5.50289 19.0112 4.99391 18.8003C4.48493 18.5895 4.02248 18.2804 3.63296 17.8908C3.24344 17.5012 2.93449 17.0387 2.72375 16.5297C2.51301 16.0206 2.4046 15.4751 2.40473 14.9242V6.33298C2.4046 5.7821 2.51301 5.2366 2.72377 4.72763C2.93452 4.21865 3.24349 3.75619 3.63302 3.36666C4.02255 2.97713 4.48501 2.66816 4.99398 2.45741C5.50295 2.24666 6.04846 2.13825 6.59934 2.13837H15.1905C16.3029 2.13863 17.3697 2.58064 18.1563 3.36723C18.9429 4.15382 19.3849 5.22058 19.3851 6.33298L19.3861 14.9242Z" fill="#383838"/>
<path d="M10.8951 5.1329C7.86293 5.1329 5.39893 7.59787 5.39893 10.6291C5.39893 13.6603 7.8639 16.1253 10.8951 16.1253C13.9263 16.1253 16.3913 13.6603 16.3913 10.6291C16.3913 7.59787 13.9273 5.1329 10.8951 5.1329ZM10.8951 13.9869C10.0046 13.987 9.15044 13.6334 8.52064 13.0038C7.89083 12.3741 7.53694 11.5201 7.53681 10.6296C7.53669 9.73902 7.89033 8.8849 8.51995 8.25509C9.14958 7.62529 10.0036 7.2714 10.8941 7.27127C11.7847 7.27114 12.6388 7.62479 13.2686 8.25441C13.8984 8.88403 14.2523 9.73805 14.2524 10.6286C14.2526 11.5191 13.8989 12.3733 13.2693 13.0031C12.6397 13.6329 11.7857 13.9868 10.8951 13.9869ZM16.4029 3.85645C16.6633 3.85664 16.9178 3.93402 17.1342 4.07881C17.3507 4.2236 17.5193 4.4293 17.6189 4.66992C17.7185 4.91054 17.7445 5.17527 17.6936 5.43066C17.6428 5.68605 17.5173 5.92063 17.3332 6.10477C17.1491 6.2889 16.9145 6.41432 16.6591 6.46516C16.4037 6.51601 16.139 6.49001 15.8984 6.39045C15.6577 6.29089 15.452 6.12223 15.3073 5.90579C15.1625 5.68935 15.0851 5.43485 15.0849 5.17445C15.0849 4.44781 15.5777 3.85645 16.4029 3.85645Z" fill="#383838"/>
</svg>
