<svg width="20" height="20" viewBox="0 0 20 20" fill="none" xmlns="http://www.w3.org/2000/svg">
<path d="M18.3683 0.0700742H2.41543C2.20981 0.0604428 2.0043 0.0914525 1.81068 0.161346C1.61706 0.23124 1.43913 0.338632 1.28706 0.477368C1.135 0.616116 1.01178 0.783495 0.924489 0.96991C0.837197 1.15634 0.787522 1.35814 0.77832 1.56379V17.5525C0.790366 17.9828 0.966719 18.3923 1.27116 18.6967C1.5756 19.0012 1.98505 19.1776 2.41543 19.1896H18.3683C18.7866 19.171 19.1811 18.9891 19.4671 18.6831C19.753 18.3771 19.9076 17.9712 19.8978 17.5525V1.56379C19.9013 1.36363 19.8638 1.16489 19.7877 0.979745C19.7115 0.794609 19.5984 0.626966 19.4551 0.487095C19.3119 0.347236 19.1417 0.238111 18.9548 0.166401C18.7679 0.0946909 18.5683 0.0619126 18.3683 0.0700742ZM6.75317 16.011H3.96889V7.49087H6.75317V16.011ZM5.42675 6.20027C5.23246 6.20705 5.03887 6.17356 4.85814 6.10194C4.6774 6.03031 4.51343 5.92208 4.37653 5.78405C4.23962 5.64602 4.13273 5.48117 4.06259 5.29986C3.99243 5.11855 3.96054 4.92469 3.96889 4.73046C3.9603 4.53412 3.99284 4.33817 4.06443 4.15516C4.13602 3.97214 4.24507 3.80611 4.38459 3.66772C4.52411 3.52932 4.69101 3.42162 4.87459 3.35152C5.05819 3.28141 5.2544 3.25046 5.45065 3.26064C5.64494 3.25388 5.83854 3.28735 6.01927 3.35898C6.20001 3.43061 6.36398 3.53883 6.50088 3.67686C6.63779 3.8149 6.74468 3.97974 6.81482 4.16105C6.88498 4.34237 6.91687 4.53623 6.90852 4.73046C6.91711 4.92679 6.88457 5.12274 6.81298 5.30575C6.74139 5.48877 6.63234 5.6548 6.49282 5.79319C6.3533 5.93159 6.1864 6.0393 6.00281 6.10939C5.81922 6.1795 5.623 6.21045 5.42675 6.20027ZM16.7192 16.011H13.923V11.3506C13.923 10.2393 13.5287 9.47453 12.5368 9.47453C12.2288 9.47715 11.9289 9.57502 11.6787 9.75475C11.4284 9.93447 11.2398 10.1872 11.1387 10.4783C11.061 10.6965 11.0285 10.9282 11.0431 11.1594V16.011H8.29468V7.49087H11.0431V8.68585C11.2875 8.23689 11.6511 7.8643 12.094 7.60906C12.5368 7.35393 13.0416 7.22617 13.5526 7.2399C15.357 7.2399 16.7192 8.4349 16.7192 10.9802V16.011Z" fill="#383838"/>
</svg>
