<svg width="94" height="57" viewBox="0 0 94 57" fill="none" xmlns="http://www.w3.org/2000/svg">
<path d="M30.0224 47.6093C27.8437 47.6093 25.868 47.1108 24.0955 46.1137C22.3599 45.1167 20.9936 43.7503 19.9965 42.0147C18.9994 40.2791 18.5009 38.285 18.5009 36.0324V18.1962C18.5009 17.5315 18.3347 16.9222 18.0024 16.3682C17.67 15.8143 17.2269 15.3712 16.673 15.0388C16.1191 14.7065 15.5098 14.5403 14.845 14.5403C14.1803 14.5403 13.571 14.7065 13.0171 15.0388C12.5001 15.3712 12.0754 15.8143 11.7431 16.3682C11.4107 16.9222 11.2446 17.5315 11.2446 18.1962V47H3.32352V19.1378C3.32352 16.996 3.80358 15.0573 4.76371 13.3217C5.72384 11.5861 7.07171 10.2013 8.80732 9.16728C10.5429 8.09637 12.5555 7.56092 14.845 7.56092C17.1715 7.56092 19.2026 8.09637 20.9382 9.16728C22.6738 10.2013 24.0217 11.5861 24.9818 13.3217C25.9419 15.0573 26.422 16.996 26.422 19.1378V36.9741C26.422 37.6388 26.5881 38.2481 26.9205 38.802C27.2528 39.3559 27.6775 39.799 28.1945 40.1314C28.7484 40.4637 29.3577 40.6299 30.0224 40.6299C30.6872 40.6299 31.2965 40.4637 31.8504 40.1314C32.4043 39.799 32.8474 39.3559 33.1798 38.802C33.5121 38.2481 33.6783 37.6388 33.6783 36.9741V19.1378C33.6783 16.996 34.1584 15.0573 35.1185 13.3217C36.0786 11.5861 37.4265 10.2013 39.1621 9.16728C40.9347 8.09637 42.9657 7.56092 45.2552 7.56092C47.5817 7.56092 49.5943 8.09637 51.293 9.16728C53.0286 10.2013 54.3765 11.5861 55.3366 13.3217C56.2967 15.0573 56.7768 16.996 56.7768 19.1378V47H48.8557V18.1962C48.8557 17.5315 48.6895 16.9222 48.3572 16.3682C48.0618 15.8143 47.6371 15.3712 47.0832 15.0388C46.5293 14.7065 45.9199 14.5403 45.2552 14.5403C44.5905 14.5403 43.9812 14.7065 43.4273 15.0388C42.8734 15.3712 42.4303 15.8143 42.0979 16.3682C41.7655 16.9222 41.5994 17.5315 41.5994 18.1962V36.0324C41.5994 38.285 41.0824 40.2791 40.0484 42.0147C39.0513 43.7503 37.685 45.1167 35.9494 46.1137C34.2138 47.1108 32.2381 47.6093 30.0224 47.6093Z" fill="#2E2E2E"/>
<path d="M58.1594 47V8.22562H71.2319C75.3678 8.22562 78.9499 9.0565 81.978 10.7183C85.006 12.38 87.351 14.6696 89.0127 17.5869C90.7114 20.5042 91.5608 23.8462 91.5608 27.6128C91.5608 31.3795 90.7114 34.7214 89.0127 37.6388C87.351 40.5561 85.006 42.8456 81.978 44.5074C78.9499 46.1691 75.3678 47 71.2319 47H58.1594ZM66.0805 40.0206H71.2319C73.6322 40.0206 75.7556 39.5221 77.602 38.525C79.4853 37.528 80.9624 36.1062 82.0333 34.2598C83.1043 32.3765 83.6397 30.1608 83.6397 27.6128C83.6397 25.0279 83.1043 22.8122 82.0333 20.9658C80.9624 19.1194 79.4853 17.6976 77.602 16.7006C75.7556 15.7035 73.6322 15.205 71.2319 15.205H66.0805V40.0206Z" fill="#FF7038"/>
</svg>
