<svg width="75" height="35" viewBox="0 0 75 35" fill="none" xmlns="http://www.w3.org/2000/svg">
<path d="M23.2316 34.5121C21.4006 34.5121 19.7402 34.0931 18.2505 33.2552C16.7918 32.4172 15.6435 31.2689 14.8056 29.8102C13.9676 28.3516 13.5486 26.6757 13.5486 24.7825V9.79253C13.5486 9.2339 13.409 8.72182 13.1297 8.25629C12.8503 7.79076 12.4779 7.41834 12.0124 7.13902C11.5469 6.85971 11.0348 6.72005 10.4762 6.72005C9.91752 6.72005 9.40544 6.85971 8.93991 7.13902C8.50542 7.41834 8.14852 7.79076 7.8692 8.25629C7.58988 8.72182 7.45022 9.2339 7.45022 9.79253V34H0.793169V10.5839C0.793169 8.78389 1.19663 7.15454 2.00354 5.69588C2.81046 4.23723 3.94324 3.07341 5.4019 2.20442C6.86055 1.3044 8.55197 0.854393 10.4762 0.854393C12.4314 0.854393 14.1383 1.3044 15.597 2.20442C17.0556 3.07341 18.1884 4.23723 18.9953 5.69588C19.8022 7.15454 20.2057 8.78389 20.2057 10.5839V25.5739C20.2057 26.1326 20.3454 26.6447 20.6247 27.1102C20.904 27.5757 21.2609 27.9481 21.6954 28.2275C22.1609 28.5068 22.673 28.6464 23.2316 28.6464C23.7903 28.6464 24.3023 28.5068 24.7679 28.2275C25.2334 27.9481 25.6058 27.5757 25.8851 27.1102C26.1645 26.6447 26.3041 26.1326 26.3041 25.5739V10.5839C26.3041 8.78389 26.7076 7.15454 27.5145 5.69588C28.3214 4.23723 29.4542 3.07341 30.9128 2.20442C32.4025 1.3044 34.1095 0.854393 36.0337 0.854393C37.9889 0.854393 39.6803 1.3044 41.1079 2.20442C42.5666 3.07341 43.6994 4.23723 44.5063 5.69588C45.3132 7.15454 45.7166 8.78389 45.7166 10.5839V34H39.0596V9.79253C39.0596 9.2339 38.9199 8.72182 38.6406 8.25629C38.3923 7.79076 38.0354 7.41834 37.5699 7.13902C37.1044 6.85971 36.5923 6.72005 36.0337 6.72005C35.475 6.72005 34.9629 6.85971 34.4974 7.13902C34.0319 7.41834 33.6595 7.79076 33.3801 8.25629C33.1008 8.72182 32.9612 9.2339 32.9612 9.79253V24.7825C32.9612 26.6757 32.5267 28.3516 31.6577 29.8102C30.8197 31.2689 29.6714 32.4172 28.2128 33.2552C26.7541 34.0931 25.0937 34.5121 23.2316 34.5121Z" fill="#E4E4E7"/>
<path d="M46.8786 34V1.41302H57.8651C61.341 1.41302 64.3515 2.11132 66.8964 3.5079C69.4412 4.90449 71.412 6.82867 72.8086 9.28045C74.2362 11.7322 74.95 14.5409 74.95 17.7065C74.95 20.8721 74.2362 23.6808 72.8086 26.1326C71.412 28.5844 69.4412 30.5085 66.8964 31.9051C64.3515 33.3017 61.341 34 57.8651 34H46.8786ZM53.5357 28.1343H57.8651C59.8824 28.1343 61.6669 27.7154 63.2187 26.8774C64.8015 26.0395 66.0429 24.8446 66.9429 23.2929C67.8429 21.7101 68.2929 19.8479 68.2929 17.7065C68.2929 15.534 67.8429 13.6719 66.9429 12.1202C66.0429 10.5684 64.8015 9.37356 63.2187 8.53561C61.6669 7.69766 59.8824 7.27868 57.8651 7.27868H53.5357V28.1343Z" fill="#FF7038"/>
</svg>
