<svg width="20" height="19" viewBox="0 0 20 19" fill="none" xmlns="http://www.w3.org/2000/svg">
<g clip-path="url(#clip0_76_27)">
<path fill-rule="evenodd" clip-rule="evenodd" d="M15.3544 13.4464C15.1311 14.0784 14.2437 14.6012 13.536 14.754C13.0515 14.8569 12.4198 14.9383 10.2911 14.0561C7.90033 13.0656 4.58045 9.53732 4.58045 7.18935C4.58045 5.99405 5.26962 4.6022 6.47475 4.6022C7.05462 4.6022 7.18245 4.61351 7.37327 5.07123C7.59651 5.61051 8.14118 6.93916 8.20602 7.07537C8.47373 7.6341 7.93368 7.96118 7.54185 8.44764C7.4168 8.59404 7.27508 8.75237 7.43348 9.02478C7.59095 9.29164 8.13562 10.1793 8.93595 10.8919C9.96971 11.8129 10.808 12.1069 11.1081 12.232C11.3314 12.3247 11.5982 12.3031 11.7612 12.1289C11.9678 11.9056 12.2243 11.5351 12.4856 11.17C12.6699 10.9087 12.9043 10.8761 13.1497 10.9688C13.3155 11.0262 15.4229 12.0049 15.5118 12.1615C15.5776 12.2754 15.5776 12.8145 15.3544 13.4464ZM9.96415 0.365967H9.95951C4.85278 0.365967 0.699219 4.52078 0.699219 9.62905C0.699219 11.6546 1.35227 13.5338 2.46292 15.058L1.30873 18.5L4.86854 17.3625C6.33303 18.3317 8.08097 18.8921 9.96415 18.8921C15.0709 18.8921 19.2254 14.7373 19.2254 9.62905C19.2254 4.52078 15.0709 0.365967 9.96415 0.365967Z" fill="#383838"/>
</g>
<defs>
<clipPath id="clip0_76_27">
<rect width="18.5262" height="18.5262" fill="white" transform="translate(0.695557 0.365967)"/>
</clipPath>
</defs>
</svg>
